# xmcd
#
# Track frame offsets:
#	150
#	20695
#	45890
#	67562
#	89332
#	107477
#	126072
#	146772
#	161712
#	179445
#
# Disc length: 2670 seconds
#
# Revision: 1
# Processed by: cddbd v1.5.1PL0 Copyright (c) Steve Scherf et al.
# Submitted via: CDex 1.50Beta5
#
DISCID=7a0a6c0a
DTITLE=さまざまなアーティスト - '70s DISCO IN THE HOUSE
DYEAR=1900
DGENRE=
TTITLE0=SHEELA/LE FREAK
TTITLE1=MICHELLE/DANCING QUEEN
TTITLE2=BRADDY/DA YA THINK I'M SEXY?
TTITLE3=DANNY/A B C
TTITLE4=JOEY JOHNSON/LOVE MACHINE
TTITLE5=BRADDY/NEW YORK CITY NIGHTS
TTITLE6=DANNY/YOU CAN'T HURRY LOVE
TTITLE7=RONNIE KING/SEPTEMBER
TTITLE8=SHANNIE/NIGHT FEVER
TTITLE9=RONNIE KING/IN THE NAVY
EXTD=
EXTT0=
EXTT1=
EXTT2=
EXTT3=
EXTT4=
EXTT5=
EXTT6=
EXTT7=
EXTT8=
EXTT9=
PLAYORDER=
